<svg width="176" height="133" viewBox="0 0 176 133" fill="none" xmlns="http://www.w3.org/2000/svg">
<path fill-rule="evenodd" clip-rule="evenodd" d="M87.5 65.0407C87.4301 64.8868 87.3523 64.7175 87.2665 64.5337C86.8028 63.5405 86.1056 62.1241 85.169 60.4257C83.2966 57.0299 80.4642 52.5006 76.6246 47.9689C68.9502 38.9113 57.2035 29.7921 41.02 29.7921C20.5812 29.7921 4 46.127 4 66.2921C4 86.4572 20.5812 102.792 41.02 102.792C57.2035 102.792 68.9502 93.6729 76.6246 84.6153C80.4642 80.0837 83.2966 75.5543 85.169 72.1585C86.1056 70.4601 86.8028 69.0438 87.2665 68.0505C87.3523 67.8667 87.4301 67.6974 87.5 67.5435C87.5699 67.6974 87.6477 67.8667 87.7335 68.0505C88.1972 69.0438 88.8944 70.4601 89.831 72.1585C91.7034 75.5543 94.5358 80.0837 98.3754 84.6153C106.05 93.6729 117.797 102.792 133.98 102.792C154.419 102.792 171 86.4572 171 66.2921C171 46.127 154.419 29.7921 133.98 29.7921C117.797 29.7921 106.05 38.9113 98.3754 47.9689C94.5358 52.5006 91.7034 57.0299 89.831 60.4257C88.8944 62.1241 88.1972 63.5405 87.7335 64.5337C87.6477 64.7175 87.5699 64.8868 87.5 65.0407ZM41.02 30.7921C21.1199 30.7921 5 46.6927 5 66.2921C5 85.8915 21.1199 101.792 41.02 101.792C56.7915 101.792 68.2848 92.9113 75.8616 83.9689C79.6476 79.5005 82.4438 75.0299 84.2933 71.6757C85.2178 69.9991 85.905 68.603 86.3604 67.6275C86.5881 67.1398 86.7578 66.7573 86.8703 66.4977C86.9051 66.4172 86.9345 66.3485 86.9584 66.2921C86.9345 66.2358 86.9051 66.167 86.8703 66.0865C86.7578 65.8269 86.5881 65.4445 86.3604 64.9568C85.905 63.9813 85.2178 62.5851 84.2933 60.9085C82.4438 57.5543 79.6476 53.0837 75.8616 48.6153C68.2848 39.6729 56.7915 30.7921 41.02 30.7921ZM88.1298 66.0865C88.0949 66.167 88.0655 66.2358 88.0416 66.2921C88.0655 66.3485 88.0949 66.4172 88.1298 66.4977C88.2422 66.7573 88.4119 67.1398 88.6396 67.6275C89.095 68.603 89.7822 69.9991 90.7067 71.6757C92.5563 75.0299 95.3524 79.5005 99.1384 83.9689C106.715 92.9113 118.208 101.792 133.98 101.792C153.88 101.792 170 85.8915 170 66.2921C170 46.6927 153.88 30.7921 133.98 30.7921C118.208 30.7921 106.715 39.6729 99.1384 48.6153C95.3524 53.0837 92.5563 57.5543 90.7067 60.9085C89.7822 62.5851 89.095 63.9813 88.6396 64.9568C88.4119 65.4445 88.2422 65.8269 88.1298 66.0865Z" fill="#B7BABE"/>
<path d="M22.5 40.2921C25.2614 40.2921 27.5 38.0535 27.5 35.2921C27.5 32.5307 25.2614 30.2921 22.5 30.2921C19.7386 30.2921 17.5 32.5307 17.5 35.2921C17.5 38.0535 19.7386 40.2921 22.5 40.2921Z" fill="#191B1D"/>
<path fill-rule="evenodd" clip-rule="evenodd" d="M87.5 63.9518C87.4202 63.7986 87.3352 63.6383 87.2449 63.4718C86.4602 62.0243 85.2719 60.0906 83.6571 58.1521C80.4386 54.2883 75.424 50.2921 68.46 50.2921C59.643 50.2921 52.5 57.4581 52.5 66.2921C52.5 75.1262 59.643 82.2921 68.46 82.2921C75.424 82.2921 80.4386 78.2959 83.6571 74.4321C85.2719 72.4936 86.4602 70.5599 87.2449 69.1124C87.3352 68.9459 87.4202 68.7857 87.5 68.6324C87.5798 68.7857 87.6648 68.9459 87.7551 69.1124C88.5398 70.5599 89.7281 72.4936 91.3429 74.4321C94.5614 78.2959 99.576 82.2921 106.54 82.2921C115.357 82.2921 122.5 75.1262 122.5 66.2921C122.5 57.4581 115.357 50.2921 106.54 50.2921C99.576 50.2921 94.5614 54.2883 91.3429 58.1521C89.7281 60.0906 88.5398 62.0243 87.7551 63.4718C87.6648 63.6383 87.5798 63.7986 87.5 63.9518ZM68.46 52.2921C60.7526 52.2921 54.5 58.5576 54.5 66.2921C54.5 74.0266 60.7526 80.2921 68.46 80.2921C74.586 80.2921 79.0914 76.7883 82.1204 73.1521C83.6294 71.3406 84.7467 69.5243 85.4866 68.1593C85.856 67.4779 86.1298 66.912 86.3099 66.5195C86.3485 66.4355 86.3827 66.3596 86.4127 66.2921C86.3947 66.2517 86.3752 66.2081 86.3541 66.1616C86.3401 66.1306 86.3253 66.0983 86.3099 66.0647C86.1298 65.6722 85.856 65.1063 85.4866 64.4249C84.7467 63.0599 83.6294 61.2436 82.1204 59.4321C79.0914 55.7959 74.586 52.2921 68.46 52.2921ZM88.5873 66.2921C88.6173 66.3596 88.6515 66.4355 88.6901 66.5195C88.8702 66.912 89.144 67.4779 89.5134 68.1593C90.2533 69.5243 91.3706 71.3406 92.8796 73.1521C95.9086 76.7883 100.414 80.2921 106.54 80.2921C114.247 80.2921 120.5 74.0266 120.5 66.2921C120.5 58.5576 114.247 52.2921 106.54 52.2921C100.414 52.2921 95.9086 55.7959 92.8796 59.4321C91.3706 61.2436 90.2533 63.0599 89.5134 64.4249C89.144 65.1063 88.8702 65.6722 88.6901 66.0647C88.6515 66.1487 88.6173 66.2247 88.5873 66.2921Z" fill="#191B1D"/>
<path d="M163.5 91.2921C163.5 92.949 162.157 94.2921 160.5 94.2921C158.843 94.2921 157.5 92.949 157.5 91.2921C157.5 89.6353 158.843 88.2921 160.5 88.2921C162.157 88.2921 163.5 89.6353 163.5 91.2921Z" fill="#191B1D"/>
</svg>
